<?xml version="1.0" encoding="UTF-8"?>
<svg xmlns="http://www.w3.org/2000/svg" xmlns:xlink="http://www.w3.org/1999/xlink" width="289.98pt" height="233.41pt" viewBox="0 0 289.98 233.41" version="1.1">
<defs>
<clipPath id="clip1">
  <path d="M 262 140 L 289.980469 140 L 289.980469 183 L 262 183 Z M 262 140 "/>
</clipPath>
<clipPath id="clip2">
  <path d="M 9 219 L 17 219 L 17 233.410156 L 9 233.410156 Z M 9 219 "/>
</clipPath>
</defs>
<g id="surface1">
<path style=" stroke:none;fill-rule:nonzero;fill:rgb(44.313049%,43.920898%,45.489502%);fill-opacity:1;" d="M 101.0625 174.8125 L 103.390625 174.601563 C 106.640625 174.304688 107.730469 172.042969 107.378906 168.179688 C 106.988281 163.953125 105.023438 162.714844 102.328125 162.957031 L 99.996094 163.171875 Z M 91.199219 157.488281 L 101.738281 156.523438 C 106.148438 156.121094 108.683594 156.136719 111.007813 157.902344 C 115.132813 161.105469 115.574219 165.949219 115.714844 167.480469 C 116.421875 175.199219 113.1875 177.65625 111.394531 178.996094 L 119.203125 196.140625 L 110.378906 196.945313 L 104.316406 181.3125 L 101.679688 181.554688 L 103.148438 197.609375 L 94.9375 198.359375 L 91.199219 157.488281 "/>
<path style=" stroke:none;fill-rule:nonzero;fill:rgb(44.313049%,43.920898%,45.489502%);fill-opacity:1;" d="M 127.414063 154.175781 L 129.796875 180.21875 C 130.261719 185.304688 130.953125 188.144531 134.691406 187.804688 C 138.675781 187.4375 138.402344 183.816406 137.964844 179.039063 L 135.625 153.425781 L 142.730469 152.773438 L 145.074219 178.386719 C 145.738281 185.617188 146.097656 194.296875 134.824219 195.328125 C 125.507813 196.179688 122.382813 191.710938 121.421875 181.230469 L 119.019531 154.941406 L 127.414063 154.175781 "/>
<path style=" stroke:none;fill-rule:nonzero;fill:rgb(44.313049%,43.920898%,45.489502%);fill-opacity:1;" d="M 148.613281 152.234375 L 156.824219 151.484375 L 165.15625 169.628906 C 166.007813 171.46875 166.808594 174.175781 167.859375 177.539063 C 167.171875 173.398438 166.292969 167.179688 166.109375 165.15625 L 164.789063 150.753906 L 171.589844 150.132813 L 175.332031 191.003906 L 168.53125 191.625 L 158.957031 171.433594 C 157.660156 168.710938 156.488281 165.355469 155.800781 163.257813 C 156.445313 166.90625 157.421875 173.550781 157.578125 175.265625 L 159.152344 192.484375 L 152.351563 193.105469 L 148.613281 152.234375 "/>
<path style=" stroke:none;fill-rule:nonzero;fill:rgb(44.313049%,43.920898%,45.489502%);fill-opacity:1;" d="M 177.839844 149.558594 L 186.050781 148.808594 L 194.386719 166.953125 C 195.234375 168.792969 196.035156 171.5 197.085938 174.863281 C 196.398438 170.726563 195.519531 164.503906 195.335938 162.480469 L 194.019531 148.082031 L 200.820313 147.460938 L 204.558594 188.332031 L 197.757813 188.953125 L 188.1875 168.757813 C 186.886719 166.035156 185.714844 162.683594 185.027344 160.582031 C 185.671875 164.230469 186.648438 170.875 186.808594 172.59375 L 188.382813 189.808594 L 181.582031 190.433594 L 177.839844 149.558594 "/>
<path style=" stroke:none;fill-rule:nonzero;fill:rgb(44.313049%,43.920898%,45.489502%);fill-opacity:1;" d="M 233.050781 144.511719 L 241.261719 143.761719 L 249.59375 161.90625 C 250.441406 163.742188 251.246094 166.449219 252.292969 169.8125 C 251.609375 165.675781 250.726563 159.453125 250.542969 157.429688 L 249.226563 143.027344 L 256.027344 142.40625 L 259.769531 183.277344 L 252.964844 183.902344 L 243.394531 163.707031 C 242.09375 160.984375 240.921875 157.632813 240.238281 155.53125 C 240.878906 159.179688 241.859375 165.824219 242.015625 167.542969 L 243.589844 184.761719 L 236.789063 185.382813 L 233.050781 144.511719 "/>
<g clip-path="url(#clip1)" clip-rule="nonzero">
<path style=" stroke:none;fill-rule:nonzero;fill:rgb(44.313049%,43.920898%,45.489502%);fill-opacity:1;" d="M 289.976563 180.515625 L 286.363281 180.847656 L 284.933594 176.03125 C 283.792969 179.105469 282.375 181.828125 277.285156 182.292969 C 268.097656 183.136719 264.019531 175.042969 262.910156 162.910156 C 262.046875 153.476563 263.140625 141.140625 274.292969 140.117188 C 284.15625 139.21875 286.539063 148.328125 287.386719 152.886719 L 280.578125 154.808594 C 279.492188 150.332031 278.699219 147.070313 275.023438 147.40625 C 272.875 147.601563 271.992188 148.734375 271.484375 150.632813 C 270.8125 153.414063 271.289063 159.304688 271.585938 162.550781 C 272.484375 172.351563 274.046875 175.238281 277.601563 174.914063 C 279.992188 174.695313 281.914063 173.46875 281.335938 166.414063 L 276.246094 166.882813 L 275.625 160.078125 L 288.003906 158.945313 L 289.976563 180.515625 "/>
</g>
<path style=" stroke:none;fill-rule:nonzero;fill:rgb(44.313049%,43.920898%,45.489502%);fill-opacity:1;" d="M 8.394531 165.628906 L 10.777344 191.671875 C 11.242188 196.757813 11.933594 199.597656 15.671875 199.257813 C 19.65625 198.890625 19.386719 195.269531 18.949219 190.492188 L 16.605469 164.875 L 23.714844 164.226563 L 26.058594 189.84375 C 26.71875 197.070313 27.082031 205.75 15.804688 206.78125 C 6.492188 207.636719 3.363281 203.160156 2.40625 192.683594 L 0 166.394531 L 8.394531 165.628906 "/>
<path style=" stroke:none;fill-rule:nonzero;fill:rgb(44.313049%,43.920898%,45.489502%);fill-opacity:1;" d="M 39.511719 181.566406 L 41.53125 181.382813 C 44.351563 181.121094 45.792969 180 45.304688 174.671875 C 45.003906 171.363281 43.910156 168.867188 40.417969 169.1875 L 38.394531 169.371094 Z M 29.59375 163.6875 L 39.828125 162.753906 C 43.6875 162.398438 47.734375 162.027344 50.722656 165.648438 C 52.800781 168.113281 53.773438 171.304688 54.070313 174.550781 C 54.484375 179.082031 53.402344 183.445313 50.832031 185.78125 C 48.316406 187.988281 44.703125 188.320313 42.617188 188.511719 L 40.167969 188.734375 L 41.546875 203.808594 L 33.335938 204.5625 L 29.59375 163.6875 "/>
<path style=" stroke:none;fill-rule:nonzero;fill:rgb(44.313049%,43.920898%,45.489502%);fill-opacity:1;" d="M 72.839844 167.640625 C 72.6875 165.988281 72.011719 162.648438 69.316406 162.898438 C 67.109375 163.101563 66.070313 165.234375 66.308594 167.867188 C 66.578125 170.808594 67.90625 173.160156 69.363281 175.558594 C 70.679688 174.449219 73.269531 172.359375 72.839844 167.640625 Z M 64.285156 190.296875 C 64.632813 194.097656 66.761719 198.472656 71.234375 198.066406 C 73.929688 197.816406 75.554688 196 76.449219 194.929688 C 74.429688 191.78125 71.039063 186.46875 67.738281 180.773438 C 66.605469 181.929688 63.769531 184.660156 64.285156 190.296875 Z M 84.441406 178.320313 C 84.457031 180.480469 84.464844 188.019531 81.027344 194.328125 C 81.652344 195.070313 82.816406 196.324219 84.960938 196.128906 C 85.574219 196.070313 85.929688 195.917969 86.464844 195.683594 L 86.828125 199.667969 C 86.121094 200.039063 85.53125 200.34375 84 200.480469 C 81.363281 200.722656 80.421875 199.882813 78.695313 197.875 C 76.800781 200.152344 74.089844 201.574219 71.148438 201.84375 C 64.53125 202.449219 60.414063 197.324219 59.816406 190.769531 C 59.535156 187.703125 59.597656 182.324219 65.976563 177.722656 C 64.894531 176.03125 62.578125 172.351563 62.25 168.734375 C 61.945313 165.425781 63.105469 159.882813 68.683594 159.371094 C 72.175781 159.050781 76.1875 161.03125 76.777344 167.46875 C 77.355469 173.777344 72.847656 177.21875 71.117188 178.550781 C 73.59375 182.648438 76.667969 187.867188 78.59375 190.71875 C 80.558594 185.84375 80.707031 181.378906 80.792969 177.601563 L 84.441406 178.320313 "/>
<g clip-path="url(#clip2)" clip-rule="nonzero">
<path style=" stroke:none;fill-rule:nonzero;fill:rgb(44.313049%,43.920898%,45.489502%);fill-opacity:1;" d="M 16.09375 219.234375 L 16.21875 220.597656 L 10.769531 221.101563 L 11.1875 225.578125 L 15.664063 225.160156 L 15.789063 226.519531 L 11.3125 226.9375 L 11.902344 233.257813 L 10.261719 233.410156 L 9 219.898438 L 16.09375 219.234375 "/>
</g>
<path style=" stroke:none;fill-rule:nonzero;fill:rgb(44.313049%,43.920898%,45.489502%);fill-opacity:1;" d="M 19.230469 218.941406 L 20.492188 232.457031 L 18.851563 232.609375 L 17.589844 219.097656 L 19.230469 218.941406 "/>
<path style=" stroke:none;fill-rule:nonzero;fill:rgb(44.313049%,43.920898%,45.489502%);fill-opacity:1;" d="M 28.652344 218.066406 L 28.78125 219.441406 L 25.539063 219.746094 L 26.667969 231.878906 L 25.03125 232.03125 L 23.898438 219.898438 L 20.675781 220.199219 L 20.546875 218.820313 L 28.652344 218.066406 "/>
<path style=" stroke:none;fill-rule:nonzero;fill:rgb(44.313049%,43.920898%,45.489502%);fill-opacity:1;" d="M 31.972656 217.757813 L 38.132813 227.949219 L 37.140625 217.273438 L 38.554688 217.140625 L 39.816406 230.652344 L 38.195313 230.804688 L 31.492188 219.824219 L 32.566406 231.328125 L 31.148438 231.464844 L 29.886719 217.949219 L 31.972656 217.757813 "/>
<path style=" stroke:none;fill-rule:nonzero;fill:rgb(44.313049%,43.920898%,45.489502%);fill-opacity:1;" d="M 48.988281 216.167969 L 49.117188 217.527344 L 43.40625 218.058594 L 43.820313 222.535156 L 48.320313 222.117188 L 48.445313 223.472656 L 43.949219 223.890625 L 44.410156 228.855469 L 50.285156 228.308594 L 50.410156 229.664063 L 42.898438 230.367188 L 41.636719 216.855469 L 48.988281 216.167969 "/>
<path style=" stroke:none;fill-rule:nonzero;fill:rgb(44.313049%,43.920898%,45.489502%);fill-opacity:1;" d="M 57.886719 218.875 C 57.417969 217.8125 56.808594 216.542969 54.945313 216.71875 C 53.101563 216.890625 52.828125 218.324219 52.894531 219.03125 C 53.027344 220.453125 54.183594 220.792969 56.113281 221.328125 C 57.75 221.789063 60.097656 222.449219 60.339844 225.039063 C 60.496094 226.722656 59.574219 229.097656 56.394531 229.394531 C 55.238281 229.5 53.890625 229.28125 52.964844 228.570313 C 51.933594 227.785156 51.589844 226.71875 51.378906 226 L 52.835938 225.433594 C 53.121094 226.308594 53.773438 228.25 56.304688 228.011719 C 58.332031 227.824219 58.746094 226.355469 58.664063 225.464844 C 58.515625 223.863281 57.082031 223.402344 55.761719 223.035156 C 54.144531 222.574219 53.492188 222.390625 52.726563 221.828125 C 51.957031 221.265625 51.394531 220.273438 51.300781 219.265625 C 51.148438 217.621094 52.164063 215.589844 54.960938 215.324219 C 58 215.042969 58.929688 217.367188 59.304688 218.3125 L 57.886719 218.875 "/>
<path style=" stroke:none;fill-rule:nonzero;fill:rgb(44.313049%,43.920898%,45.489502%);fill-opacity:1;" d="M 68.539063 217.882813 C 68.074219 216.820313 67.464844 215.550781 65.601563 215.722656 C 63.757813 215.894531 63.484375 217.328125 63.550781 218.039063 C 63.683594 219.457031 64.839844 219.800781 66.765625 220.332031 C 68.40625 220.796875 70.753906 221.453125 70.996094 224.050781 C 71.152344 225.726563 70.230469 228.101563 67.050781 228.398438 C 65.894531 228.507813 64.546875 228.285156 63.621094 227.574219 C 62.589844 226.792969 62.242188 225.722656 62.035156 225.007813 L 63.492188 224.441406 C 63.777344 225.3125 64.429688 227.253906 66.960938 227.019531 C 68.988281 226.828125 69.402344 225.359375 69.320313 224.46875 C 69.167969 222.867188 67.738281 222.410156 66.414063 222.042969 C 64.800781 221.582031 64.148438 221.394531 63.382813 220.832031 C 62.613281 220.273438 62.050781 219.28125 61.957031 218.269531 C 61.804688 216.628906 62.820313 214.59375 65.613281 214.332031 C 68.652344 214.050781 69.585938 216.375 69.960938 217.320313 L 68.539063 217.882813 "/>
<path style=" stroke:none;fill-rule:nonzero;fill:rgb(44.313049%,43.920898%,45.489502%);fill-opacity:1;" d="M 79.707031 214.675781 L 80.164063 219.574219 L 82.210938 219.386719 C 84.113281 219.207031 84.738281 218.003906 84.601563 216.546875 C 84.417969 214.601563 82.886719 214.375 81.875 214.472656 Z M 81.867188 213.101563 C 82.089844 213.082031 83.652344 212.957031 84.671875 213.597656 C 85.367188 214.023438 86.105469 214.933594 86.242188 216.414063 C 86.472656 218.863281 84.90625 219.828125 84.34375 220.164063 L 87.464844 226.210938 L 85.703125 226.375 L 82.882813 220.691406 L 80.289063 220.933594 L 80.839844 226.828125 L 79.199219 226.980469 L 77.9375 213.46875 L 81.867188 213.101563 "/>
<path style=" stroke:none;fill-rule:nonzero;fill:rgb(44.313049%,43.920898%,45.489502%);fill-opacity:1;" d="M 95.945313 211.789063 L 96.074219 213.148438 L 90.359375 213.679688 L 90.777344 218.15625 L 95.277344 217.734375 L 95.402344 219.09375 L 90.90625 219.515625 L 91.367188 224.476563 L 97.242188 223.929688 L 97.371094 225.285156 L 89.855469 225.988281 L 88.59375 212.476563 L 95.945313 211.789063 "/>
<path style=" stroke:none;fill-rule:nonzero;fill:rgb(44.313049%,43.920898%,45.489502%);fill-opacity:1;" d="M 99.984375 212.78125 L 100.480469 218.089844 L 101.734375 217.972656 C 103.152344 217.839844 104.957031 217.671875 104.714844 215.078125 C 104.613281 214.003906 104.214844 213.46875 103.921875 213.171875 C 103.265625 212.476563 102.578125 212.539063 101.238281 212.664063 Z M 101.113281 211.308594 C 103.058594 211.125 104.222656 211.34375 105.09375 212.121094 C 105.964844 212.921875 106.332031 214.011719 106.414063 214.921875 C 106.542969 216.296875 106.074219 217.605469 105.082031 218.375 C 104.148438 219.117188 102.753906 219.246094 101.859375 219.328125 L 100.605469 219.445313 L 101.117188 224.9375 L 99.476563 225.089844 L 98.214844 211.578125 L 101.113281 211.308594 "/>
<path style=" stroke:none;fill-rule:nonzero;fill:rgb(44.313049%,43.920898%,45.489502%);fill-opacity:1;" d="M 112.6875 218.625 L 110.378906 212.058594 L 109.304688 218.941406 Z M 111.304688 210.355469 L 116.171875 223.53125 L 114.507813 223.6875 L 113.15625 219.910156 L 109.105469 220.289063 L 108.492188 224.25 L 106.832031 224.402344 L 109.359375 210.535156 L 111.304688 210.355469 "/>
<path style=" stroke:none;fill-rule:nonzero;fill:rgb(44.313049%,43.920898%,45.489502%);fill-opacity:1;" d="M 118.617188 209.675781 L 119.878906 223.1875 L 118.234375 223.339844 L 116.976563 209.828125 L 118.617188 209.675781 "/>
<path style=" stroke:none;fill-rule:nonzero;fill:rgb(44.313049%,43.920898%,45.489502%);fill-opacity:1;" d="M 123.546875 210.585938 L 124.003906 215.488281 L 126.046875 215.296875 C 127.953125 215.117188 128.574219 213.914063 128.4375 212.457031 C 128.257813 210.511719 126.726563 210.289063 125.710938 210.382813 Z M 125.707031 209.015625 C 125.929688 208.992188 127.492188 208.867188 128.511719 209.507813 C 129.203125 209.933594 129.945313 210.84375 130.082031 212.324219 C 130.3125 214.777344 128.746094 215.738281 128.183594 216.078125 L 131.300781 222.121094 L 129.539063 222.285156 L 126.722656 216.601563 L 124.128906 216.84375 L 124.679688 222.738281 L 123.035156 222.890625 L 121.777344 209.378906 L 125.707031 209.015625 "/>
<path style=" stroke:none;fill-rule:nonzero;fill:rgb(44.313049%,43.920898%,45.489502%);fill-opacity:1;" d="M 143.824219 215.722656 L 141.515625 209.152344 L 140.441406 216.039063 Z M 142.441406 207.453125 L 147.304688 220.628906 L 145.644531 220.785156 L 144.289063 217.007813 L 140.238281 217.386719 L 139.628906 221.34375 L 137.96875 221.5 L 140.496094 207.636719 L 142.441406 207.453125 "/>
<path style=" stroke:none;fill-rule:nonzero;fill:rgb(44.313049%,43.920898%,45.489502%);fill-opacity:1;" d="M 150.136719 206.734375 L 156.296875 216.929688 L 155.304688 206.253906 L 156.722656 206.121094 L 157.980469 219.636719 L 156.359375 219.785156 L 149.65625 208.804688 L 150.730469 220.308594 L 149.3125 220.441406 L 148.050781 206.929688 L 150.136719 206.734375 "/>
<path style=" stroke:none;fill-rule:nonzero;fill:rgb(44.313049%,43.920898%,45.489502%);fill-opacity:1;" d="M 162.574219 217.835938 L 163.851563 217.71875 C 167.152344 217.410156 168.035156 214.609375 167.789063 211.957031 C 167.484375 208.695313 165.761719 206.648438 162.84375 206.921875 L 161.566406 207.039063 Z M 159.800781 205.832031 L 162.71875 205.5625 C 167.742188 205.09375 169.273438 209.035156 169.519531 211.648438 C 169.851563 215.234375 168.253906 218.675781 163.976563 219.074219 L 161.0625 219.347656 L 159.800781 205.832031 "/>
<path style=" stroke:none;fill-rule:nonzero;fill:rgb(44.313049%,43.920898%,45.489502%);fill-opacity:1;" d="M 176.816406 204.246094 L 179.1875 204.027344 L 183.382813 214.609375 L 185.546875 203.433594 L 187.859375 203.21875 L 189.117188 216.730469 L 187.578125 216.875 L 186.488281 205.164063 L 184.09375 217.199219 L 182.898438 217.308594 L 178.402344 205.898438 L 179.496094 217.625 L 178.078125 217.761719 L 176.816406 204.246094 "/>
<path style=" stroke:none;fill-rule:nonzero;fill:rgb(44.313049%,43.920898%,45.489502%);fill-opacity:1;" d="M 197 210.765625 L 194.691406 204.195313 L 193.617188 211.078125 Z M 195.617188 202.492188 L 200.484375 215.671875 L 198.820313 215.824219 L 197.46875 212.050781 L 193.417969 212.425781 L 192.804688 216.386719 L 191.144531 216.539063 L 193.671875 202.675781 L 195.617188 202.492188 "/>
<path style=" stroke:none;fill-rule:nonzero;fill:rgb(44.313049%,43.920898%,45.489502%);fill-opacity:1;" d="M 202.929688 201.8125 L 204.191406 215.324219 L 202.550781 215.476563 L 201.289063 201.964844 L 202.929688 201.8125 "/>
<path style=" stroke:none;fill-rule:nonzero;fill:rgb(44.313049%,43.920898%,45.489502%);fill-opacity:1;" d="M 208.117188 201.328125 L 214.277344 211.523438 L 213.28125 200.847656 L 214.699219 200.714844 L 215.960938 214.226563 L 214.339844 214.375 L 207.632813 203.394531 L 208.707031 214.902344 L 207.289063 215.035156 L 206.027344 201.523438 L 208.117188 201.328125 "/>
<path style=" stroke:none;fill-rule:nonzero;fill:rgb(44.313049%,43.920898%,45.489502%);fill-opacity:1;" d="M 224.039063 199.84375 L 224.167969 201.21875 L 220.925781 201.523438 L 222.058594 213.65625 L 220.417969 213.808594 L 219.285156 201.675781 L 216.0625 201.976563 L 215.933594 200.597656 L 224.039063 199.84375 "/>
<path style=" stroke:none;fill-rule:nonzero;fill:rgb(44.313049%,43.920898%,45.489502%);fill-opacity:1;" d="M 232.6875 199.035156 L 232.8125 200.394531 L 227.101563 200.925781 L 227.519531 205.402344 L 232.015625 204.984375 L 232.144531 206.339844 L 227.644531 206.761719 L 228.109375 211.726563 L 233.984375 211.179688 L 234.109375 212.535156 L 226.59375 213.234375 L 225.335938 199.722656 L 232.6875 199.035156 "/>
<path style=" stroke:none;fill-rule:nonzero;fill:rgb(44.313049%,43.920898%,45.489502%);fill-opacity:1;" d="M 236.984375 198.636719 L 243.144531 208.832031 L 242.148438 198.152344 L 243.566406 198.019531 L 244.828125 211.535156 L 243.207031 211.6875 L 236.5 200.703125 L 237.574219 212.210938 L 236.15625 212.34375 L 234.894531 198.832031 L 236.984375 198.636719 "/>
<path style=" stroke:none;fill-rule:nonzero;fill:rgb(44.313049%,43.920898%,45.489502%);fill-opacity:1;" d="M 252.667969 205.570313 L 250.359375 199 L 249.285156 205.886719 Z M 251.285156 197.304688 L 256.152344 210.476563 L 254.488281 210.632813 L 253.136719 206.855469 L 249.085938 207.234375 L 248.472656 211.195313 L 246.8125 211.347656 L 249.339844 197.480469 L 251.285156 197.304688 "/>
<path style=" stroke:none;fill-rule:nonzero;fill:rgb(44.313049%,43.920898%,45.489502%);fill-opacity:1;" d="M 258.984375 196.582031 L 265.144531 206.777344 L 264.148438 196.101563 L 265.566406 195.96875 L 266.828125 209.480469 L 265.207031 209.632813 L 258.5 198.652344 L 259.574219 210.160156 L 258.15625 210.292969 L 256.894531 196.777344 L 258.984375 196.582031 "/>
<path style=" stroke:none;fill-rule:nonzero;fill:rgb(44.313049%,43.920898%,45.489502%);fill-opacity:1;" d="M 277.890625 204.546875 C 277.714844 206.605469 277.183594 208.804688 274.105469 209.089844 C 270.011719 209.472656 269.003906 205.214844 268.753906 202.539063 C 268.582031 200.695313 268.375 195.421875 272.851563 195.003906 C 276.175781 194.695313 277.070313 197.511719 277.429688 198.726563 L 275.90625 199.257813 C 275.519531 197.964844 274.988281 196.195313 273.023438 196.378906 C 270.042969 196.65625 270.367188 201 270.492188 202.335938 C 270.667969 204.222656 271.324219 207.960938 274.078125 207.699219 C 275.597656 207.558594 276.109375 206.695313 276.378906 204.320313 L 277.890625 204.546875 "/>
<path style=" stroke:none;fill-rule:nonzero;fill:rgb(44.313049%,43.920898%,45.489502%);fill-opacity:1;" d="M 286.65625 194.003906 L 286.78125 195.359375 L 281.070313 195.894531 L 281.484375 200.371094 L 285.984375 199.949219 L 286.109375 201.308594 L 281.613281 201.726563 L 282.074219 206.691406 L 287.949219 206.140625 L 288.078125 207.5 L 280.5625 208.199219 L 279.300781 194.6875 L 286.65625 194.003906 "/>
<path style=" stroke:none;fill-rule:nonzero;fill:rgb(0%,29.411316%,55.293274%);fill-opacity:1;" d="M 199.621094 72.734375 C 198.953125 71.75 198.191406 70.636719 198.398438 69.792969 C 198.535156 69.203125 198.082031 67.46875 197.601563 65.628906 L 196.625 61.53125 C 196.019531 58.203125 196.65625 49.113281 196.871094 47.847656 C 197.121094 46.34375 197.292969 45.265625 198.335938 45.078125 C 199.261719 44.910156 203.476563 44.296875 205.695313 44.570313 C 207.429688 44.785156 207.695313 45.148438 208.019531 45.773438 L 208.332031 46.296875 L 208.847656 46.851563 C 209.273438 47.25 209.515625 47.550781 209.277344 48.367188 L 208.902344 49.214844 C 208.652344 49.679688 208.335938 50.253906 208.019531 52.113281 L 207.5625 55.214844 L 207.269531 57.390625 L 207.191406 59.21875 C 207.234375 60.050781 207.214844 60.492188 206.320313 61.347656 C 205.628906 62.007813 205.214844 64.332031 204.851563 66.382813 C 204.558594 68.03125 204.285156 69.589844 203.863281 70.5 C 202.929688 72.519531 202.097656 75.554688 202.089844 75.585938 C 201.976563 75.953125 201.773438 76.035156 201.625 76.039063 C 201.210938 76.050781 200.953125 75.542969 200.398438 74.019531 Z M 242.128906 0.144531 L 242.125 0.144531 C 242.09375 0.160156 238.628906 1.9375 237.855469 1.753906 C 237.855469 1.753906 237.367188 1.691406 237.367188 1.691406 C 237.171875 1.671875 236.964844 1.625 236.757813 1.589844 C 236.800781 1.617188 236.824219 1.6875 236.871094 1.699219 L 237.078125 1.730469 L 237.261719 2.011719 C 237.269531 2.042969 237.273438 2.078125 237.273438 2.109375 C 237.269531 2.382813 236.964844 2.601563 236.417969 2.996094 L 235.195313 4.007813 C 234.3125 5.019531 231.179688 9.757813 231.140625 11.730469 C 231.140625 11.8125 231.144531 11.894531 231.15625 11.96875 L 231.585938 13.871094 C 231.773438 14.558594 231.949219 15.171875 231.933594 15.878906 C 231.929688 16.085938 231.910156 16.300781 231.871094 16.523438 C 231.832031 16.761719 231.808594 17.007813 231.804688 17.257813 C 231.78125 18.425781 232.144531 19.730469 232.859375 21.007813 C 233.285156 21.769531 233.492188 22.488281 233.476563 23.167969 C 233.464844 23.898438 233.195313 24.578125 232.667969 25.199219 C 231.679688 26.375 231.375 26.511719 229.378906 26.617188 C 228.496094 26.664063 227.957031 26.914063 227.386719 27.175781 C 226.75 27.46875 226.089844 27.769531 224.953125 27.851563 C 223.761719 27.9375 223.109375 27.558594 222.585938 27.253906 C 222.117188 26.980469 221.777344 26.78125 221.136719 26.917969 L 219.242188 27.042969 C 218.238281 27.039063 217.296875 27.03125 216.652344 27.582031 C 215.957031 28.183594 215.65625 28.25 215.21875 28.3125 L 214.085938 28.664063 L 212.816406 29.375 L 211.667969 30.109375 L 210.628906 30.792969 C 209.695313 31.441406 208.820313 32.050781 207.332031 32.054688 C 205.707031 32.0625 202.128906 32.390625 199 33.589844 C 195.898438 34.777344 188.714844 38.957031 187.789063 39.804688 C 187.140625 40.390625 186.875 42.113281 187.078125 44.40625 C 187.207031 45.839844 188.828125 57.214844 190.171875 60.742188 L 191.058594 62.933594 C 192.3125 65.929688 193.492188 68.757813 192.433594 70.40625 C 191.613281 71.6875 191.679688 72.976563 191.742188 74.117188 L 191.75 75.453125 C 191.636719 76.648438 192.925781 77.660156 193.679688 77.890625 L 194.917969 78.75 L 195.757813 79.359375 L 197.691406 79.820313 C 198.039063 79.902344 198.515625 80.15625 198.699219 80.59375 C 198.792969 80.808594 198.847656 81.152344 198.597656 81.574219 C 198.640625 81.503906 198.625 83.449219 198.082031 84.363281 L 197.636719 84.980469 C 196.996094 85.816406 196.03125 87.078125 195.667969 89.582031 L 195.308594 91.796875 C 194.894531 94.199219 194.511719 96.464844 194.992188 97.691406 C 195.722656 99.542969 194.890625 100.859375 193.976563 102.050781 L 193.222656 102.761719 C 192.976563 102.929688 192.882813 102.988281 192.800781 104.492188 L 192.75 106.203125 C 192.710938 108.257813 192.667969 109.25 192.136719 109.453125 C 191.902344 109.546875 191.648438 109.449219 191.394531 109.175781 C 191.003906 108.75 190.375 108.246094 189.632813 108.273438 C 189.054688 108.296875 188.480469 108.65625 187.9375 109.339844 L 187.757813 109.566406 C 186.40625 111.277344 186.242188 111.410156 183.628906 111.59375 C 181.753906 111.722656 180.4375 112.226563 179.167969 112.710938 L 177.6875 113.246094 C 176.1875 113.726563 176.1875 114.460938 176.554688 116.140625 C 176.964844 118.023438 178.664063 124.945313 179.4375 126.519531 C 180.007813 127.679688 180.261719 128.421875 179.878906 128.78125 C 179.570313 129.0625 179.054688 128.949219 178.089844 128.390625 C 176.164063 127.265625 168.304688 123.863281 163.921875 123.570313 C 161.476563 123.410156 158.628906 123.824219 156.121094 124.1875 C 154.148438 124.472656 152.449219 124.71875 151.402344 124.605469 L 148.617188 124.410156 C 143.777344 124.105469 139.699219 123.804688 138.867188 123.101563 C 138.425781 122.730469 138.046875 122.648438 137.742188 122.585938 L 137.109375 122.265625 L 137.0625 121.570313 C 137.3125 120.546875 137.003906 119.40625 136.183594 118.277344 C 135.164063 116.898438 131.421875 114.773438 129.8125 115.765625 C 128.058594 116.839844 121.574219 127.265625 120.335938 130.316406 C 119.0625 133.457031 117.621094 140.207031 117.570313 142.050781 C 117.546875 142.882813 117.816406 143.605469 118.332031 144.089844 C 118.71875 144.457031 119.214844 144.648438 119.65625 144.613281 C 120.148438 144.570313 120.261719 144.375 120.714844 143.4375 L 121.976563 141.132813 C 123.371094 138.910156 123.933594 138.65625 125.179688 138.253906 L 125.863281 138.019531 L 127.832031 137.570313 L 131.3125 136.953125 C 135.164063 136.082031 135.515625 135.578125 135.96875 134.242188 C 136.460938 132.808594 138.007813 132.882813 139.964844 132.976563 L 141.460938 133.03125 C 144.03125 133.078125 150.789063 133.914063 155.082031 135.425781 C 159.042969 136.816406 165.410156 138.21875 169.035156 138.71875 C 171.707031 139.085938 173.398438 139.71875 175.355469 140.449219 L 177.390625 141.183594 L 179.257813 141.878906 C 181.878906 142.894531 185.136719 144.15625 186.582031 142.996094 C 187.4375 142.3125 194.996094 136.261719 197.808594 134.625 L 198.527344 134.203125 C 200.457031 133.066406 200.8125 132.910156 202.167969 134.25 C 202.742188 134.816406 203.066406 135.492188 203.410156 136.203125 C 203.929688 137.277344 204.464844 138.386719 205.933594 139.414063 C 208.402344 141.15625 210.808594 144.371094 210.804688 145.25 L 210.277344 146.878906 C 209.492188 148.980469 208.023438 152.898438 208.414063 155.355469 L 208.855469 157.945313 C 209.480469 161.570313 210.257813 166.078125 210.238281 168.707031 L 210.480469 172.589844 C 210.875 177.433594 211.425781 184.0625 209.894531 187.394531 L 209.753906 187.699219 L 209.460938 187.535156 C 209.355469 187.476563 209.035156 187.347656 208.808594 187.457031 C 208.585938 187.5625 208.488281 187.890625 208.441406 188.140625 C 208.285156 189.058594 208.335938 191.316406 208.375 192.964844 L 208.378906 195.203125 C 208.359375 195.402344 208.453125 195.910156 208.96875 196.425781 C 209.601563 197.058594 210.914063 197.757813 213.59375 197.472656 L 221.375 196.3125 L 226.835938 195.484375 C 230.230469 195.15625 235.65625 194.144531 236.703125 192.71875 C 237.402344 191.769531 237.699219 190.511719 237.453125 189.515625 C 237.289063 188.84375 236.894531 188.339844 236.316406 188.054688 C 234.765625 187.296875 231.835938 187.472656 230.871094 187.523438 L 230.566406 187.539063 C 229.636719 187.570313 227.089844 184.636719 227.0625 184.609375 L 226.703125 184.164063 C 225.929688 183.195313 224.757813 181.726563 223.28125 181.414063 C 223.277344 181.414063 220.179688 180.835938 220.179688 180.835938 L 220.148438 180.597656 C 220.140625 180.527344 219.535156 173.101563 219.550781 169.855469 C 219.558594 168.011719 220.023438 164.675781 220.472656 161.449219 L 221.296875 154.683594 C 221.574219 150.703125 222.328125 146.289063 222.902344 145.234375 C 223.257813 144.589844 223.8125 144.609375 224.214844 144.621094 C 224.621094 144.632813 224.789063 144.636719 224.917969 144.238281 L 225.140625 142.992188 C 225.269531 141.925781 225.417969 140.71875 226.398438 140.28125 C 227.589844 139.761719 227.871094 139.21875 227.5625 138.054688 L 227.457031 137.648438 C 226.957031 135.773438 225.625 130.792969 225.527344 129.191406 C 225.429688 127.484375 224.8125 122.28125 224.164063 120.09375 C 223.75 118.679688 223.714844 117.652344 223.679688 116.566406 L 223.535156 114.535156 L 223.394531 113.519531 C 223.207031 112.257813 223.128906 111.683594 223.382813 110.605469 C 223.496094 110.140625 223.398438 109.871094 223.257813 109.46875 C 223.066406 108.941406 222.808594 108.222656 222.976563 106.769531 L 223.496094 103.894531 C 223.769531 102.636719 224.023438 101.445313 223.984375 100.265625 C 223.914063 98.121094 224.230469 97.703125 225.445313 96.4375 C 226.335938 95.515625 226.410156 95.332031 226.675781 94.71875 L 226.933594 94.136719 L 227.667969 92.976563 C 228.15625 92.3125 228.664063 91.628906 228.894531 90.394531 C 229.089844 89.351563 229.550781 89.070313 229.953125 88.820313 C 230.390625 88.554688 230.800781 88.304688 231.011719 86.882813 L 231.242188 84.933594 C 231.425781 83.097656 231.582031 81.511719 232.84375 78.851563 C 234.445313 75.472656 234.6875 74.328125 234.691406 74.320313 L 235.300781 74.332031 C 235.300781 74.347656 235.539063 75.753906 236.507813 76.4375 C 237.550781 77.175781 240.453125 78.152344 241.847656 77.597656 C 243.417969 76.976563 243.863281 77.273438 244.464844 77.8125 C 244.691406 78.015625 245.050781 78.046875 245.417969 77.941406 C 245.769531 77.839844 246.1875 77.589844 246.304688 77.179688 L 246.972656 75.628906 C 247.679688 74.105469 248.828125 71.609375 248.851563 70.304688 C 248.851563 70.226563 248.851563 70.15625 248.84375 70.09375 C 248.675781 68.355469 247.8125 67.679688 247.3125 67.429688 C 246.761719 67.15625 246.636719 66.570313 246.644531 66.019531 C 246.652344 65.675781 246.710938 65.347656 246.75 65.117188 C 246.855469 64.527344 247.546875 64.40625 248.277344 64.277344 C 249.074219 64.132813 249.976563 63.972656 250.480469 63.308594 C 250.773438 62.917969 250.886719 62.601563 250.894531 62.285156 C 250.902344 61.949219 250.785156 61.617188 250.644531 61.195313 L 250.261719 59.722656 L 250.070313 58.644531 C 249.917969 57.859375 249.757813 57.058594 249.777344 56.097656 C 249.789063 55.410156 249.886719 54.648438 250.136719 53.746094 L 250.707031 51.882813 C 251.257813 50.175781 251.730469 48.699219 251.835938 46.054688 C 251.835938 46.054688 252.175781 43.214844 252.175781 43.214844 C 252.28125 42.65625 252.363281 42.191406 252.371094 41.75 C 252.382813 41.027344 252.191406 40.371094 251.53125 39.476563 L 250.1875 37.453125 C 249.507813 36.355469 249.015625 35.5625 247.847656 34.765625 L 245.78125 33.085938 L 245.582031 32.890625 L 245.097656 32.097656 C 245.089844 32.050781 245.085938 32 245.089844 31.953125 C 245.097656 31.632813 245.242188 31.300781 245.53125 30.960938 C 246.015625 30.382813 246.277344 30.355469 246.695313 30.359375 L 247.417969 30.296875 L 248.339844 30.144531 C 248.898438 30.058594 250.210938 29.863281 250.3125 29.617188 C 250.410156 29.320313 250.460938 28.875 250.46875 28.472656 C 250.472656 28.195313 250.457031 27.941406 250.425781 27.761719 C 250.394531 27.59375 250.371094 27.445313 250.375 27.308594 C 250.382813 26.996094 250.511719 26.730469 250.953125 26.425781 L 251.273438 26.222656 C 251.320313 26.214844 251.332031 26.167969 251.335938 26.117188 C 251.335938 26.035156 251.300781 25.933594 251.300781 25.933594 C 251.226563 25.75 251.199219 25.511719 251.207031 25.234375 C 251.214844 24.585938 251.410156 23.730469 251.617188 22.886719 L 251.671875 22.671875 C 251.691406 22.585938 252.175781 20.5625 252.945313 20.308594 C 253.460938 20.148438 253.859375 20.023438 253.871094 19.460938 C 253.871094 19.351563 253.859375 19.226563 253.835938 19.085938 C 253.832031 19.085938 253.222656 17.097656 253.222656 17.097656 L 253.027344 16.578125 C 252.984375 16.464844 252.96875 16.347656 252.972656 16.238281 C 252.980469 15.890625 253.164063 15.570313 253.351563 15.230469 L 253.792969 14.246094 C 253.816406 14.132813 253.832031 13.984375 253.835938 13.804688 C 253.859375 12.519531 253.308594 9.679688 252.453125 8.003906 C 252.054688 7.222656 251.933594 6.824219 251.9375 6.566406 C 251.941406 6.480469 251.957031 6.410156 251.980469 6.347656 L 252.378906 6.007813 C 252.496094 5.800781 252.738281 5.097656 252.75 4.261719 C 252.757813 3.820313 252.703125 3.347656 252.535156 2.886719 C 252.292969 2.234375 251.648438 1.902344 251.023438 1.578125 C 250.933594 1.535156 250.863281 1.488281 250.777344 1.441406 C 250.773438 1.503906 250.773438 1.574219 250.773438 1.574219 C 250.707031 1.710938 250.539063 1.871094 250.109375 1.847656 C 249.839844 1.828125 249.484375 1.738281 249.164063 1.5625 C 248.984375 1.660156 248.804688 1.765625 248.804688 1.765625 C 248.425781 1.925781 247.347656 2.015625 246.589844 1.246094 C 245.792969 0.441406 243.035156 -0.339844 242.128906 0.144531 "/>
</g>
</svg>
